<svg xmlns="http://www.w3.org/2000/svg" width="114" height="55" viewBox="0 0 114 55" fill="none"><path d="M8.208 25.632C6.504 25.632 4.932 25.32 3.492 24.696C2.076 24.048 0.912 23.136 0 21.96L3.24 18.072C4.608 19.92 6.168 20.844 7.92 20.844C10.296 20.844 11.484 19.452 11.484 16.668V4.68H2.628V0H17.28V16.344C17.28 19.44 16.512 21.768 14.976 23.328C13.44 24.864 11.184 25.632 8.208 25.632Z" fill="#6C6C6C"></path><path d="M32.0406 0H37.8726V25.2H32.0406V0Z" fill="#6C6C6C"></path><path d="M75.9651 0V25.2H71.1771L58.6131 9.9V25.2H52.8531V0H57.6771L70.2051 15.3V0H75.9651Z" fill="#6C6C6C"></path><path d="M106.803 25.2L100.719 16.452L94.7433 25.2H88.0473L97.3713 12.384L88.5153 0H95.1393L100.935 8.172L106.623 0H112.923L104.139 12.168L113.535 25.2H106.803Z" fill="#6C6C6C"></path><path d="M8.208 28.7681C6.504 28.7681 4.932 29.0801 3.492 29.7041C2.076 30.3521 0.912 31.2641 0 32.4401L3.24 36.3281C4.608 34.4801 6.168 33.5561 7.92 33.5561C10.296 33.5561 11.484 34.9481 11.484 37.7321V49.7201H2.628V54.4001H17.28V38.0561C17.28 34.9601 16.512 32.6321 14.976 31.0721C13.44 29.5361 11.184 28.7681 8.208 28.7681Z" fill="url(#paint0_linear)"></path><path d="M32.0406 54.4001H37.8726V29.2001H32.0406V54.4001Z" fill="url(#paint1_linear)"></path><path d="M75.9651 54.4001V29.2001H71.1771L58.6131 44.5001V29.2001H52.8531V54.4001H57.6771L70.2051 39.1001V54.4001H75.9651Z" fill="url(#paint2_linear)"></path><path d="M106.803 29.2001L100.719 37.9481L94.7433 29.2001H88.0473L97.3713 42.0161L88.5153 54.4001H95.1393L100.935 46.2281L106.623 54.4001H112.923L104.139 42.2321L113.535 29.2001H106.803Z" fill="url(#paint3_linear)"></path><defs><linearGradient id="paint0_linear" x1="56.7676" y1="28.7681" x2="56.7676" y2="54.4001" gradientUnits="userSpaceOnUse"><stop stop-color="#E8E8E8"></stop><stop offset="1" stop-color="#E8E8E8" stop-opacity="0"></stop></linearGradient><linearGradient id="paint1_linear" x1="56.7676" y1="28.7681" x2="56.7676" y2="54.4001" gradientUnits="userSpaceOnUse"><stop stop-color="#E8E8E8"></stop><stop offset="1" stop-color="#E8E8E8" stop-opacity="0"></stop></linearGradient><linearGradient id="paint2_linear" x1="56.7676" y1="28.7681" x2="56.7676" y2="54.4001" gradientUnits="userSpaceOnUse"><stop stop-color="#E8E8E8"></stop><stop offset="1" stop-color="#E8E8E8" stop-opacity="0"></stop></linearGradient><linearGradient id="paint3_linear" x1="56.7676" y1="28.7681" x2="56.7676" y2="54.4001" gradientUnits="userSpaceOnUse"><stop stop-color="#E8E8E8"></stop><stop offset="1" stop-color="#E8E8E8" stop-opacity="0"></stop></linearGradient></defs></svg>